<svg xmlns="http://www.w3.org/2000/svg" viewBox="0 0 386 205" role="img" aria-hidden="true">
<path fill="#e60037" fill-rule="evenodd" d="M44,165 L44,203 L53,203 L53,165Z M320,164 L314,167 L310,171 L307,177 L307,183 L306,184 L307,186 L307,191 L310,197 L314,201 L320,204 L332,204 L336,202 L342,196 L344,192 L344,190 L335,190 L332,194 L328,196 L325,196 L324,195 L322,195 L318,191 L317,189 L318,188 L321,188 L322,187 L329,187 L330,186 L336,186 L337,185 L344,185 L344,178 L343,177 L343,175 L341,171 L336,166 L332,164Z M317,179 L320,174 L322,173 L324,173 L325,172 L327,173 L330,173 L333,176 L333,178 L332,179 L326,179 L325,180 L318,180Z M221,167 L216,173 L215,175 L215,177 L214,178 L214,190 L218,198 L221,201 L227,204 L237,204 L241,202 L244,199 L245,199 L246,201 L249,203 L252,203 L253,204 L255,204 L255,195 L253,194 L253,165 L243,165 L242,167 L238,164 L227,164Z M232,172 L235,172 L239,174 L242,178 L242,181 L243,182 L243,186 L242,187 L242,189 L241,191 L237,195 L235,195 L234,196 L228,194 L226,192 L224,188 L224,179 L225,177 L229,173 L231,173Z M379,165 L377,164 L374,164 L373,163 L371,163 L370,164 L367,164 L362,167 L361,165 L352,165 L352,203 L362,203 L362,179 L363,177 L367,173 L369,173 L370,172 L372,173 L375,176 L375,178 L376,179 L376,203 L385,203 L385,173 L383,169Z M160,164 L158,165 L153,170 L152,172 L152,179 L153,181 L157,185 L161,187 L163,187 L164,188 L166,188 L168,189 L171,192 L171,193 L168,196 L164,196 L162,195 L159,191 L150,191 L150,194 L152,198 L156,202 L160,204 L172,204 L176,202 L179,199 L181,195 L181,190 L180,189 L180,187 L175,182 L171,180 L166,179 L164,178 L161,175 L164,172 L167,172 L171,176 L173,175 L175,175 L178,173 L180,173 L178,169 L175,166 L171,164 L168,164 L167,163 L165,163 L164,164Z M85,165 L85,203 L95,203 L95,182 L96,181 L96,178 L97,176 L100,173 L102,173 L103,172 L104,173 L106,173 L109,176 L109,203 L119,203 L119,182 L120,181 L120,178 L121,176 L124,173 L126,173 L127,172 L130,173 L133,176 L133,179 L134,180 L134,203 L144,203 L144,178 L143,177 L143,173 L141,169 L137,165 L135,164 L132,164 L131,163 L129,163 L128,164 L125,164 L124,165 L122,165 L117,169 L113,165 L111,164 L107,164 L106,163 L104,164 L100,164 L96,167 L95,165Z M198,152 L194,154 L191,154 L191,164 L190,165 L185,165 L185,174 L190,174 L191,175 L191,193 L192,194 L192,196 L193,198 L197,202 L199,203 L206,204 L207,203 L209,203 L209,195 L208,194 L204,194 L201,190 L201,174 L202,173 L209,173 L209,165 L202,165 L201,164 L201,152Z M44,147 L42,150 L42,154 L43,156 L45,158 L47,158 L48,159 L50,158 L52,158 L55,154 L55,150 L54,148 L51,146 L46,146Z M36,146 L0,146 L0,203 L10,203 L10,180 L11,179 L29,179 L29,170 L11,170 L10,169 L10,157 L11,156 L36,156Z M300,145 L290,145 L290,166 L289,167 L284,164 L273,164 L269,166 L264,171 L262,175 L262,177 L261,178 L261,190 L262,191 L262,193 L264,197 L269,202 L273,204 L284,204 L289,201 L290,203 L300,203Z M280,172 L286,174 L289,178 L289,180 L290,181 L290,186 L289,187 L289,190 L284,195 L282,195 L281,196 L276,195 L272,191 L272,189 L271,188 L271,180 L272,179 L272,177 L276,173 L279,173Z M63,145 L63,193 L64,194 L64,197 L68,202 L70,203 L73,203 L74,204 L76,204 L78,203 L78,195 L77,194 L75,194 L73,191 L73,145Z M215,32 L177,32 L176,33 L176,93 L189,93 L189,70 L190,69 L208,69 L208,57 L190,57 L189,56 L189,45 L190,44 L215,44Z M183,0 L182,1 L178,1 L177,2 L175,2 L174,3 L169,4 L161,8 L159,10 L155,12 L143,24 L143,25 L139,30 L135,38 L135,40 L133,44 L133,47 L132,48 L132,52 L131,53 L131,69 L132,70 L132,75 L133,76 L133,79 L137,87 L137,89 L139,91 L140,94 L145,100 L145,101 L153,109 L154,109 L160,114 L170,119 L172,119 L176,121 L179,121 L180,122 L185,122 L186,123 L199,123 L200,122 L205,122 L206,121 L209,121 L210,120 L212,120 L213,119 L215,119 L218,117 L220,117 L222,116 L224,114 L227,113 L230,110 L231,110 L242,99 L242,98 L246,93 L251,83 L251,81 L252,80 L252,77 L253,76 L253,73 L254,72 L254,51 L253,50 L253,46 L252,45 L251,40 L245,28 L239,21 L239,20 L229,11 L228,11 L226,9 L214,3 L212,3 L211,2 L208,2 L207,1 L203,1 L202,0Z M183,12 L202,12 L203,13 L206,13 L207,14 L212,15 L218,18 L225,24 L226,24 L234,33 L234,34 L236,36 L239,42 L239,44 L240,45 L240,47 L242,51 L242,58 L243,59 L243,64 L242,65 L242,71 L241,72 L241,75 L240,76 L239,81 L237,85 L233,90 L233,91 L222,102 L221,102 L219,104 L211,108 L209,108 L205,110 L201,110 L200,111 L185,111 L184,110 L180,110 L179,109 L174,108 L168,105 L163,101 L162,101 L153,92 L153,91 L149,86 L146,80 L146,78 L144,74 L144,70 L143,69 L143,53 L144,52 L144,49 L145,48 L146,43 L150,35 L152,33 L152,32 L163,21 L164,21 L166,19 L176,14 L178,14 L179,13 L182,13Z"/>
</svg>
